<svg id="Layer_1" data-name="Layer 1" xmlns="http://www.w3.org/2000/svg" viewBox="0 0 92.92 92.92"><defs><style>.cls-1{fill:#666666}</style></defs><title>customer</title><path id="User" class="cls-1" d="M49.91,96A46.46,46.46,0,1,1,96.37,49.54h0A46.51,46.51,0,0,1,49.91,96ZM78.58,80.33a31.39,31.39,0,0,0-9.06-3.09C65,76.11,58.89,75.3,59.42,70.05a14.36,14.36,0,0,1-14.55,2.4c-1.57-.65-2.62-2-3.77-1.88.32,5.1-5.89,5.65-10.1,6.68a27.16,27.16,0,0,0-9.38,3.44A41.89,41.89,0,0,0,78.58,80.33ZM53.08,23.48c-14.14-1.22-21.05,8.44-19,22.6a2,2,0,0,0-1.54.86c0,4.24.84,7.73,3.94,8.9,1.55,7,6.47,15.13,15.24,14,7.08-.86,11-7.75,12.5-14,3-1.2,4-5.17,3.77-9.08-.06-.68-1.14-.35-1.54-.69C69,35,62.58,24.3,53.09,23.48ZM49.91,7.4A42.07,42.07,0,0,0,18.92,78a13,13,0,0,1,2.5-1.78c4.51-2.38,10.4-2.08,15.92-4.79V66.63c-2.23-2-2.58-5.32-4.11-8a48.24,48.24,0,0,1-3.08-4.28,14.19,14.19,0,0,1-1.37-7.19c.15-1.42,1-2.33,1.2-3.6.22-1.77-.16-3.62,0-5.31A20.27,20.27,0,0,1,47.44,19.72h5.82c10,1.64,16.79,9,17.46,19.86.08,1.27-.38,2.68-.17,4.11a38,38,0,0,1,1.37,3.94,14.27,14.27,0,0,1-4.62,11,23.23,23.23,0,0,1-3.94,8v4.62C68,74,74.2,73.78,78.77,76a14.54,14.54,0,0,1,2.46,1.58A42.07,42.07,0,0,0,49.91,7.4Z" transform="translate(-3.45 -3.08)"/></svg>