<svg id="Layer_1" data-name="Layer 1" xmlns="http://www.w3.org/2000/svg" viewBox="0 0 93.98 94.02"><defs><style>.cls-1{fill:#666666;}</style></defs><title>discount</title><path id="Sale" class="cls-1" d="M97.89,56c.26,9.21-6.49,13-12.16,17.12-.95,10.45-6.27,19.14-16.67,19.37h-.32c-3.59,0-6.31-1.29-9.81-1.81-3.69,1.63-5.92,4.5-9.68,5.63a15.91,15.91,0,0,1-4.61.72c-8,0-13-6.93-16.56-12.43-10.52-1-19.56-6.23-19.59-16.89,0-3.55,1.3-6.19,1.8-9.69-1.33-3.15-4.52-6.14-5.63-9.68C1.26,37.49,10.39,31,16.36,27.17c.71-11,6.81-19.62,17.56-19.62A22.78,22.78,0,0,1,38.43,8a24.26,24.26,0,0,0,4.25,1.14h.24c2.55-.21,6.92-4.53,9.68-5.4A15.61,15.61,0,0,1,57.31,3C65.48,3,70.6,10.31,74,15.24c10.48.84,19.42,6.56,19.59,16.89.06,3.66-1.28,6.59-1.81,10.14C94,47,97.71,49.82,97.89,56ZM87.45,41.75a42.53,42.53,0,0,1,.9-4.17,19.94,19.94,0,0,0,.85-5.21C89.05,23.84,81,20.15,73.46,19.55a4,4,0,0,1-2.95-1.7c-3.79-5.48-7.66-10.4-13.26-10.4A11.55,11.55,0,0,0,53.8,8a20.36,20.36,0,0,0-3.27,2,16,16,0,0,1-7.16,3.49l-.58,0a11.85,11.85,0,0,1-4-.87c-.37-.13-.83-.29-1-.33A18.8,18.8,0,0,0,34.11,12C25,12,21.18,20.08,20.69,27.67a4,4,0,0,1-1.81,3.08c-7.54,4.84-12.12,9.49-9.94,16.42a17.78,17.78,0,0,0,2.53,4.37,26.68,26.68,0,0,1,2.9,4.85,4,4,0,0,1,.27,2.11,38.32,38.32,0,0,1-.93,4.27,18.32,18.32,0,0,0-.81,4.74c0,10.24,11,12.33,15.78,12.76a4,4,0,0,1,3,1.79c3.29,5.07,7.28,10.49,13.05,10.49A11.91,11.91,0,0,0,48.12,92a14.49,14.49,0,0,0,4.12-2.36,27.43,27.43,0,0,1,5-3,3.92,3.92,0,0,1,1.6-.34,3.7,3.7,0,0,1,.57,0,38.91,38.91,0,0,1,4.23.91,19.54,19.54,0,0,0,4.91.83h.23c10.14-.21,12.21-11,12.62-15.56A4,4,0,0,1,83,69.66l1.72-1.23c5.49-3.9,8.85-6.58,8.68-12.38a13.11,13.11,0,0,0-2.93-7.33A34.61,34.61,0,0,1,87.76,44a4,4,0,0,1-.31-2.22ZM64.89,74.47a9.64,9.64,0,1,1,9.63-9.64h0A9.64,9.64,0,0,1,64.89,74.47Zm0-15a5.38,5.38,0,1,0,5.38,5.38h0a5.39,5.39,0,0,0-5.38-5.38Zm-29.17,10a2.13,2.13,0,0,1-3-3l35-35a2.13,2.13,0,0,1,3,3Zm3.37-23.21a9.63,9.63,0,1,1,9.63-9.63h0a9.64,9.64,0,0,1-9.64,9.63Zm0-15a5.38,5.38,0,1,0,5.38,5.38h0a5.39,5.39,0,0,0-5.38-5.38Z" transform="translate(-3.92 -3)"/></svg>