<svg id="Layer_1" data-name="Layer 1" xmlns="http://www.w3.org/2000/svg" viewBox="0 0 75.11 91.79"><defs><style>.cls-1{fill:#666666;}</style></defs><title>dollar</title><path id="Money_bag" data-name="Money bag" class="cls-1" d="M82.78,39.21h-.4a1.94,1.94,0,0,1-2-1.6c-1-3.79-7.79-5.39-10.58-5.79a4.42,4.42,0,0,1-6,2c-.4-.2-.6-.4-1-.6l.8.8c.4.4.8.6,1,.8h0c2.6,2.4,14.77,15.37,19.17,27.15,3.59,9.78,4,13.78,3.79,17,0,4.39-.2,16.37-21.16,16.57-11.58.2-14,.2-32.74,0-21-.4-21.16-12.18-21.16-16.57,0-3.19.2-7.19,3.79-17A66,66,0,0,1,35.66,34.81a2,2,0,0,0,.8-1,11.44,11.44,0,0,0,.8-2.8,3.4,3.4,0,0,1-1.4.2,1.84,1.84,0,1,1-.8-3.59c.6-.2,1-.2,1.6-.4a27.78,27.78,0,0,0-5-7.59,5.29,5.29,0,0,1-1-1.2,17.5,17.5,0,0,1-3.39-8.19.73.73,0,0,0-.2-.6l-.2-.6c-1-3.59-1-3.59-.4-4.39a2,2,0,0,1,1.4-.8,2.29,2.29,0,0,1,1.8,1.2,5.29,5.29,0,0,0,1,1.2c.4,0,1-.2,1.4-.2a42,42,0,0,1,5,.4,36.76,36.76,0,0,0,6.59.6h0a13.6,13.6,0,0,0,5.59-1.4,14.59,14.59,0,0,1,6.59-1.6,13.79,13.79,0,0,1,7.39,3.19,17.24,17.24,0,0,0,3.19,2A7.19,7.19,0,0,0,71,8.86c.8-.2,1.4-.4,2.2-.6a2.27,2.27,0,0,1,1.6.6,2.48,2.48,0,0,1,.8,3,9.28,9.28,0,0,0-.6,1.8c-1,3-5.79,6.39-10.78,10.18-.4.4-.8.6-1,.8A7.46,7.46,0,0,0,62,26a4.31,4.31,0,0,1,6.39-.4l.8.8a13.16,13.16,0,0,0,4.19-4.59,2,2,0,0,1,2.2-1.6,1.87,1.87,0,0,1,1.6,2.2A12.18,12.18,0,0,1,73.4,28c4,1,9.18,3.39,10.38,8,.8,1.8.2,3-1,3.19ZM62.42,21.84c5.79-4.59,9-7,9.58-8.59v-.2a10.63,10.63,0,0,1-6.59.2,15.19,15.19,0,0,1-3.79-2.4A12,12,0,0,0,56,8.26a9.49,9.49,0,0,0-4.79,1.2,20.12,20.12,0,0,1-6.79,1.8h-.2c-2.4,0-4.59-.4-7-.6a35.64,35.64,0,0,0-4.59-.4h-1.2a15.75,15.75,0,0,0,2.6,7,3.58,3.58,0,0,1,1,1.4c2,2.4,4.59,4.59,5.79,8.19a60.25,60.25,0,0,1,18-.2,8,8,0,0,1,3-3.79c-.2-.4.2-.6.6-1Zm-1,9.38a1.42,1.42,0,0,0,.6,1.2l-.6-1.2Zm.8,6.39a4.35,4.35,0,0,0-1-.8l-.2-.2a3.5,3.5,0,0,1-.8-1,6.06,6.06,0,0,1-2.4-5v-.4a59,59,0,0,0-16.77.2,11.65,11.65,0,0,1-1.2,5.19.2.2,0,0,1-.2.2,12.92,12.92,0,0,1-1.6,1.8A63.76,63.76,0,0,0,19.69,63.37c-3.39,9.18-3.59,12.78-3.59,15.57,0,4.39.2,12.38,17.77,12.58,21.16.4,22.36.2,32.74,0,17.37-.2,17.57-8.19,17.57-12.78,0-3-.2-6.59-3.59-15.57C76.39,52.19,63.81,39,62.22,37.61Zm-2,33.14c0,4-2.4,8.19-9,8.79v4.19H47.44V79.54a14.91,14.91,0,0,1-10.38-4.79l2.2-3a12.34,12.34,0,0,0,8,4.39V65c-4.59-1.2-9.38-2.8-9.38-8.59,0-4.79,3.79-8,9.38-8.59v-4H51v4.39a13.54,13.54,0,0,1,8.39,4.19l-2.2,2.8a10.12,10.12,0,0,0-6-3.39v10C55.83,63.17,60.22,65,60.22,70.75Zm-9,5.39a5.25,5.25,0,0,0,5-5.19c0-2.8-2.2-4-5-5ZM47.44,51.59c-3.19.2-5.39,2.2-5.39,4.79S44.25,60,47.44,61Z" transform="translate(-12.5 -3.87)"/></svg>