<svg id="Layer_1" data-name="Layer 1" xmlns="http://www.w3.org/2000/svg" viewBox="0 0 73.96 92.07"><defs><style>.cls-1{fill:#666666;}</style></defs><title>globe</title><path id="Languages" class="cls-1" d="M84.38,54.78A33.45,33.45,0,0,1,68,71.53l2,5.31a2,2,0,0,1-1.23,2.66h0a42.44,42.44,0,0,1-14.3,2.86v9.19H68.66a2,2,0,0,1,0,4.09H36.38a2,2,0,0,1,0-4.09H50.48v-9.4A40.74,40.74,0,0,1,38.83,3.72a2,2,0,0,1,2.66,1.23h0l2,5.31A33.06,33.06,0,0,1,85.2,31.5,30.67,30.67,0,0,1,84.38,54.78ZM70.49,57.85a44.26,44.26,0,0,0-.2-7.35A57.33,57.33,0,0,1,59.05,56a73.29,73.29,0,0,1-8.78,2.86c4.7,6.33,9.8,9.8,13.48,9.8a4,4,0,0,0,1.63-.2c.2-.2.41-.2.82-.41,2.25-1.43,3.88-4.9,4.29-10.21ZM36,19A28.94,28.94,0,0,0,25.15,40.28a42.62,42.62,0,0,0,11.44-.82A43.23,43.23,0,0,1,36,19ZM27.6,44.57a9.94,9.94,0,0,1-2.45-.2,28.13,28.13,0,0,0,1.84,8,28.4,28.4,0,0,0,2.25,4.29h.61a38.56,38.56,0,0,0,13.69-.41,69.82,69.82,0,0,1-4.29-8.78,35.21,35.21,0,0,1-1.43-4.29A55.93,55.93,0,0,1,27.6,44.57ZM32.7,61.12a28.81,28.81,0,0,0,21.45,9.6,7.66,7.66,0,0,0,2.25-.2A37.58,37.58,0,0,1,45.78,59.89a52.57,52.57,0,0,1-11.23,1.23ZM43.12,46a57.65,57.65,0,0,0,4.7,9.4,90.27,90.27,0,0,0,9.8-3.06A65.1,65.1,0,0,0,69.47,46.2a49.91,49.91,0,0,0-2.86-9.4c-.61-1.43-1-2.66-1.63-3.88a99.08,99.08,0,0,1-12.46,5.92A92.23,92.23,0,0,1,41.9,42.32,13,13,0,0,0,43.12,46ZM38.83,8.41a36.6,36.6,0,0,0,26.76,68l-1.23-3.27A33,33,0,0,1,40.06,11.89Zm5.92,5.72c-.2,0-.61.2-.82.2-4.49,2-6.54,11.44-3.27,23.9A88.33,88.33,0,0,0,62.94,29C57.42,19,50.48,13.72,46,13.72A1.5,1.5,0,0,1,44.76,14.13Zm9.4-1.43h0a42,42,0,0,1,12.26,14.5A29.85,29.85,0,0,0,74,20.47,28.84,28.84,0,0,0,54.15,12.7Zm27,18.18a31.17,31.17,0,0,0-4.29-7.56,40.85,40.85,0,0,1-8.38,7.35c.61,1.43,1.43,2.86,2,4.49a57.11,57.11,0,0,1,2.66,8.38,32.11,32.11,0,0,0,9.19-9c-.41-1-.82-2.45-1.23-3.68ZM74,48a41.25,41.25,0,0,1,.61,10,32.7,32.7,0,0,1-.61,4.7,28.48,28.48,0,0,0,9.19-22.47A54.49,54.49,0,0,1,74,48Z" transform="translate(-13.16 -3.56)"/></svg>