<svg id="Layer_1" data-name="Layer 1" xmlns="http://www.w3.org/2000/svg" viewBox="0 0 94.39 84.93"><defs><style>.cls-1{fill:#666666;}</style></defs><title>home</title><path id="Home" class="cls-1" d="M96.54,43.33a2.13,2.13,0,0,1-3,.36l-5.29-4V88.76a2.13,2.13,0,0,1-2.13,2.13h-27a2.13,2.13,0,0,1-1.5-.62,3.27,3.27,0,0,1-1.29-1.5V65.42H43.58V88.76a2.13,2.13,0,0,1-2.13,2.13H13.8a2.13,2.13,0,0,1-2.13-2.13V39.47L6,43.7a2.13,2.13,0,0,1-2.6-3.36L48.76,6.4a2.13,2.13,0,0,1,2.61,0l44.8,33.93a2.13,2.13,0,0,1,.37,3ZM50.06,10.78,15.86,36.34a2.08,2.08,0,0,1,.06.3v50h23.4V63.29a2.13,2.13,0,0,1,2.13-2.13h17a2.13,2.13,0,0,1,2.13,2.13V86.63H84V37.41a2.13,2.13,0,0,1,.17-.82Z" transform="translate(-2.61 -5.95)"/></svg>