<svg id="Layer_1" data-name="Layer 1" xmlns="http://www.w3.org/2000/svg" viewBox="0 0 96.01 54.23"><defs><style>.cls-1{fill:#666666;}</style></defs><title>inventory</title><path id="Delivery_van" data-name="Delivery van" class="cls-1" d="M96.77,70.65H89.83a9.72,9.72,0,0,1-19.39,0H31.9a9.72,9.72,0,0,1-19.39,0H4.25A1.75,1.75,0,0,1,2.5,68.9V56.8a1.75,1.75,0,0,1,1.75-1.75h57.6l0-27.92,3.49-.08H87.42l.1.08h0a3.49,3.49,0,0,1,3.34,2.51l.06,0L98,47.87l.12.54a5.13,5.13,0,0,1,.17.82l.17.8V68.9A1.75,1.75,0,0,1,96.77,70.65ZM22.21,76.14a6.28,6.28,0,1,0-6.28-6.28h0A6.28,6.28,0,0,0,22.21,76.14ZM61.86,60.38V58.55H6v8.61h6.88a9.71,9.71,0,0,1,18.7,0h30.3V60.38ZM80.13,76.14a6.28,6.28,0,1,0-6.28-6.28h0A6.28,6.28,0,0,0,80.13,76.14ZM95,49.66l-7.56-19.1H65.35V67.17h5.43a9.71,9.71,0,0,1,18.7,0H95V49.66ZM68.82,34.21H85.48l4.83,13.94H68.82Zm3.49,10.37H85.78l-2.67-6.93H72.31ZM56.59,53.22H30.42a1.75,1.75,0,0,1-1.75-1.75V27.1a2.13,2.13,0,0,1,1.57-1.69H56.6a2.31,2.31,0,0,1,1.75,1.7V51.48a1.75,1.75,0,0,1-1.75,1.74ZM54.89,28.9H32.2V49.84H54.89ZM25.17,53.22H7.74A1.75,1.75,0,0,1,6,51.48V39.27a2,2,0,0,1,1.76-1.63H25.25a1.84,1.84,0,0,1,1.67,1.63v12.2A1.75,1.75,0,0,1,25.17,53.22Zm-1.7-12h-14v8.66h14V41.18Z" transform="translate(-2.5 -25.4)"/></svg>