<svg id="Layer_1" data-name="Layer 1" xmlns="http://www.w3.org/2000/svg" viewBox="0 0 95.11 78.05"><defs><style>.cls-1{fill:#666666;}</style></defs><title>order</title><path id="Shopping_cart" data-name="Shopping cart" class="cls-1" d="M96.67,29C94.57,33.48,85.3,54.88,84,56.86c-.15.23-.28.46-.41.68-1.23,2.11-2.53,3.72-7,3.72H33.83c.9,2.72,2.76,6.09,6.65,6.09h37a2,2,0,0,1,0,4h-37c-5.5,0-9.51-4.3-11-10.91C28.64,56.78,18.62,23.23,17.9,20.6a5,5,0,0,0-4.3-2.87H4.48a2,2,0,1,1,0-4h9.12c3.4,0,6.61.18,8,3.41a1.84,1.84,0,0,1,.09.26c.4,1.44,8.7,30.92,11.08,39.87H76.61c2.58,0,2.83-.44,3.59-1.75.15-.26.31-.54.49-.82C81.87,52.88,91.07,31.61,93,27.48a4.84,4.84,0,0,0,.44-3.63,1.69,1.69,0,0,0-1.27-.34c-4.3.06-58.75,0-60.65,0a2,2,0,0,1,0-4h0c.46,0,56.33.07,60.61,0a5.14,5.14,0,0,1,4.56,2.06C97.93,23.33,97.91,25.84,96.67,29ZM39.43,73.29a9.26,9.26,0,1,1-9.26,9.27h0A9.27,9.27,0,0,1,39.43,73.29Zm0,14.72A5.46,5.46,0,1,0,34,82.55h0A5.46,5.46,0,0,0,39.43,88ZM77.11,73.29a9.26,9.26,0,1,1-9.26,9.27h0A9.27,9.27,0,0,1,77.11,73.29Zm0,14.72a5.46,5.46,0,1,0-5.45-5.46h0A5.46,5.46,0,0,0,77.11,88Z" transform="translate(-2.5 -13.77)"/></svg>