<svg id="Layer_1" data-name="Layer 1" xmlns="http://www.w3.org/2000/svg" viewBox="0 0 94.3 89.49"><defs><style>.cls-1{fill:#666666;}</style></defs><title>products</title><path id="Tag" class="cls-1" d="M84.75,39.75,85,53.44l-2.25.3-2.25,0-.22-13.37A16.94,16.94,0,0,1,73.78,39a5.46,5.46,0,1,1,2.29-4.43c0,.16,0,.32,0,.48a12.49,12.49,0,0,0,4.16.77L80,27.39v-.15a3.12,3.12,0,0,0-.92-2.2,3.78,3.78,0,0,0-2.44-.93l-25.29.43-.22,0A6,6,0,0,0,47,26.33L8.13,65.21a2.18,2.18,0,0,0-.64,1.55,2,2,0,0,0,0,.2c2.94,2.13,15.6,10.66,29.82,10.66a33.18,33.18,0,0,0,7.44-.83l3.15-.72-.47,3.19a19.22,19.22,0,0,0,.9,9.32l30.2-30.2.14-.15A6.06,6.06,0,0,0,80.48,54l2.25-.22L85,53.68V54a10.51,10.51,0,0,1-3,7.25l-.15.16L49.37,93.94h0a6.69,6.69,0,0,1-5.24,1.87c-7.76,0-21.55-6.83-34.76-19.95h0L5,71.5A6.68,6.68,0,0,1,3.9,70.05l0,0a2.59,2.59,0,0,1-.64-1.61A6.54,6.54,0,0,1,5,62L43.75,23.25a10.57,10.57,0,0,1,7.11-3.18l.25,0,25.68-.44.33,0A7.65,7.65,0,0,1,84.54,27v.15L84.67,35A12.49,12.49,0,1,0,73.06,13.16a2.25,2.25,0,1,1-2.66-3.63l.05,0A17,17,0,1,1,84.75,39.75ZM42.86,81.63a38.77,38.77,0,0,1-5.51.39,50.72,50.72,0,0,1-19.52-4.27c11.4,9.77,21.57,13.64,26.25,13.64a6.94,6.94,0,0,0,.73,0,19.18,19.18,0,0,1-2-9.73Z" transform="translate(-3 -6.35)"/></svg>