<svg id="Layer_1" data-name="Layer 1" xmlns="http://www.w3.org/2000/svg" viewBox="0 0 95.64 91.72">
    <defs>
        <style>.cls-1{fill:#666666}</style>
    </defs>
    <title>report</title>
    <path id="Invoice" class="cls-1" d="M91,16.75H89.82V93.22L87,90.4h-.31l-8.25-8.26-9,9L69.27,91l-.28.28-9-9-9,9L50.73,91l-.28.28-9-9-9,9L32.18,91l-.15.15-9-9L14.78,90.4h-.31l-2.82,2.82V16.75H11.1a7.64,7.64,0,1,1,0-15.24H91a7.62,7.62,0,1,1,0,15.24Zm.65-10.81H10a3.2,3.2,0,1,0,0,6.4h1.63V5.95H16l0,76.79,6.9-6.89L23,76l.15-.15,9,9,9-9,.28.28.28-.28,9,9,9-9,.28.28.28-.28,9,9,9-9,.15.15.15-.15,6.89,6.89V13h0v-7h4.33v6.39h1.79A3.21,3.21,0,0,0,92.49,6a5.15,5.15,0,0,0-.88,0ZM25.91,23.18H62.14a2.06,2.06,0,0,1,0,4.13H25.91a2.06,2.06,0,0,1,0-4.13Zm0,13H49.11a2.06,2.06,0,0,1,0,4.13H25.91a2.06,2.06,0,0,1,0-4.13Zm0,13h38.4a2.06,2.06,0,0,1,0,4.13H25.91a2.06,2.06,0,0,1,0-4.13Zm0,13H60a2.06,2.06,0,0,1,0,4.13H25.91a2.06,2.06,0,0,1,0-4.13Z" transform="translate(-2.95 -1.5)"/>
</svg>